<?xml version="1.0" encoding="utf-8"?>
<!-- Uploaded to: SVG Repo, www.svgrepo.com, Generator: SVG Repo Mixer Tools -->
<svg width="800px" height="800px" viewBox="0 0 64 64" xmlns="http://www.w3.org/2000/svg">
<title>beer</title>
<g id="beer">
<circle cx="13" cy="7" r="2" style="fill:none;stroke:#000000;stroke-linecap:round;stroke-linejoin:round;stroke-width:2px"/>
<path d="M26.632,5.5A1.132,1.132,0,1,1,25.5,4.368,1.132,1.132,0,0,1,26.632,5.5Z"/>
<polyline points="44 41.682 44 28 44 24.479" style="fill:none;stroke:#000000;stroke-linecap:round;stroke-linejoin:round;stroke-width:2px"/>
<polyline points="12 24.379 12 28 12 42.925" style="fill:none;stroke:#000000;stroke-linecap:round;stroke-linejoin:round;stroke-width:2px"/>
<path d="M16,38h0a4,4,0,0,1,4,4V61a0,0,0,0,1,0,0H16.489A4.489,4.489,0,0,1,12,56.511V42A4,4,0,0,1,16,38Z" style="fill:none;stroke:#000000;stroke-linecap:round;stroke-linejoin:round;stroke-width:2px"/>
<path d="M20,42a4,4,0,0,1,4-4h0a4,4,0,0,1,4,4" style="fill:none;stroke:#000000;stroke-linecap:round;stroke-linejoin:round;stroke-width:2px"/>
<line x1="20" y1="61" x2="55" y2="61" style="fill:none;stroke:#000000;stroke-linecap:round;stroke-linejoin:round;stroke-width:2px"/>
<path d="M36,42a4,4,0,0,0-4-4h0a4,4,0,0,0-4,4V61" style="fill:none;stroke:#000000;stroke-linecap:round;stroke-linejoin:round;stroke-width:2px"/>
<path d="M40,38h0a4,4,0,0,1,4,4V56.511A4.489,4.489,0,0,1,39.511,61H36a0,0,0,0,1,0,0V42A4,4,0,0,1,40,38Z" style="fill:none;stroke:#000000;stroke-linecap:round;stroke-linejoin:round;stroke-width:2px"/>
<line x1="32" y1="45" x2="32" y2="53" style="fill:none;stroke:#000000;stroke-linecap:round;stroke-linejoin:round;stroke-width:2px"/>
<line x1="24" y1="42" x2="24" y2="48" style="fill:none;stroke:#000000;stroke-linecap:round;stroke-linejoin:round;stroke-width:2px"/>
<line x1="24" y1="53" x2="24" y2="54" style="fill:none;stroke:#000000;stroke-linecap:round;stroke-linejoin:round;stroke-width:2px"/>
<line x1="40" y1="56" x2="40" y2="48" style="fill:none;stroke:#000000;stroke-linecap:round;stroke-linejoin:round;stroke-width:2px"/>
<line x1="40" y1="45" x2="40" y2="44" style="fill:none;stroke:#000000;stroke-linecap:round;stroke-linejoin:round;stroke-width:2px"/>
<line x1="17" y1="49" x2="17" y2="48" style="fill:none;stroke:#000000;stroke-linecap:round;stroke-linejoin:round;stroke-width:2px"/>
<line x1="15" y1="57" x2="15" y2="54" style="fill:none;stroke:#000000;stroke-linecap:round;stroke-linejoin:round;stroke-width:2px"/>
<path d="M44.358,19.161a3.989,3.989,0,1,0-6.794-4.178A6.968,6.968,0,0,0,28.919,16.2a4.979,4.979,0,0,0-9.592-.928,3.462,3.462,0,0,0-2.7,2.135,3.582,3.582,0,0,0-2.324-.854,3.44,3.44,0,0,0-3.444,2.792A2.2,2.2,0,0,0,10.1,19.2,2.047,2.047,0,0,0,8,21.192,2.808,2.808,0,0,0,10.808,24H20v2.5a1.5,1.5,0,0,0,3,0V24h8v5a3,3,0,0,0,6,0V24h6.5a2.495,2.495,0,0,0,.858-4.839Z" style="fill:none;stroke:#000000;stroke-linecap:round;stroke-linejoin:round;stroke-width:2px"/>
<path d="M44.368,41H47.6A3.407,3.407,0,0,0,51,37.6V32H44.368" style="fill:none;stroke:#000000;stroke-linecap:round;stroke-linejoin:round;stroke-width:2px"/>
<path d="M44.368,28H53a2,2,0,0,1,2,2v7.6A7.411,7.411,0,0,1,47.6,45H44.368" style="fill:none;stroke:#000000;stroke-linecap:round;stroke-linejoin:round;stroke-width:2px"/>
<circle cx="35" cy="19" r="2" style="fill:none;stroke:#000000;stroke-linecap:round;stroke-linejoin:round;stroke-width:2px"/>
<circle cx="35" cy="7" r="2" style="fill:none;stroke:#000000;stroke-linecap:round;stroke-linejoin:round;stroke-width:2px"/>
<path d="M24.632,19.5A1.132,1.132,0,1,1,23.5,18.368,1.132,1.132,0,0,1,24.632,19.5Z"/>
<path d="M46.632,4.5A1.132,1.132,0,1,1,45.5,3.368,1.132,1.132,0,0,1,46.632,4.5Z"/>
<line x1="12" y1="28" x2="31" y2="28" style="fill:none;stroke:#000000;stroke-linejoin:round;stroke-width:2px"/>
<line x1="37" y1="28" x2="44" y2="28" style="fill:none;stroke:#000000;stroke-linejoin:round;stroke-width:2px"/>
</g>
</svg>